<svg width="375" height="812" viewBox="0 0 375 812" fill="none" xmlns="http://www.w3.org/2000/svg">
<g clip-path="url(#clip0)">
<rect width="375" height="812" fill="white"/>
<rect x="-132.665" y="-10" width="528.264" height="800" fill="url(#paint0_linear)"/>
<g style="mix-blend-mode:overlay">
<path d="M-202 550.941C-103.667 254.941 -50.8578 287.891 1.60179 320.891C54.0614 353.89 125.964 515.391 239.687 479.891C353.411 444.391 630.4 809.941 630.4 809.941L-202 809.941L-202 550.941Z" fill="url(#paint1_linear)"/>
</g>
<g style="mix-blend-mode:overlay">
<path d="M333.931 659.537C255.865 577.644 193.046 634.002 127.93 655.1C62.8144 676.199 18.5677 614.386 -42.1049 595.84C-102.778 577.293 -114.879 600.22 -143.906 620C-143.906 707.933 -141.154 1121.87 -141.154 1121.87L417.229 1121.87L416.876 595.839C416.876 595.839 412.14 741.58 333.931 659.537Z" fill="url(#paint2_linear)"/>
</g>
<g style="mix-blend-mode:overlay">
<path d="M316.543 671.723C238.476 589.83 183.003 531.244 101.568 550.223C20.134 569.203 35.3624 538.671 -25.3103 520.125C-85.9829 501.579 -123.816 550.437 -152.842 570.217C-152.842 658.15 -152.842 923.223 -152.842 923.223L405.54 923.223L405.54 648.151C405.54 648.151 394.752 753.766 316.543 671.723Z" fill="url(#paint3_linear)"/>
</g>
<rect x="-132.665" y="390" width="528.264" height="400" fill="url(#paint4_linear)"/>
<rect x="-13" y="-10" width="1440" height="400" fill="url(#paint5_linear)"/>
<path d="M311.26 750.903C233.193 669.01 229.46 683.923 148.026 702.903C66.5912 721.882 41.4146 769.449 -19.2581 750.903C-79.9307 732.357 -112.077 755.98 -141.103 775.761C-141.103 863.694 -141.103 1064.31 -141.103 1064.31L417.279 1064.31L417.279 750.902C417.279 750.902 389.469 832.945 311.26 750.903Z" fill="url(#paint6_linear)"/>
</g>
<defs>
<linearGradient id="paint0_linear" x1="131.467" y1="-10" x2="131.467" y2="790" gradientUnits="userSpaceOnUse">
<stop stop-color="#343563"/>
<stop offset="1" stop-color="#4926AD"/>
</linearGradient>
<linearGradient id="paint1_linear" x1="166.398" y1="314" x2="166.398" y2="579.914" gradientUnits="userSpaceOnUse">
<stop stop-color="white" stop-opacity="0.69"/>
<stop offset="1" stop-color="white" stop-opacity="0"/>
</linearGradient>
<linearGradient id="paint2_linear" x1="168.885" y1="589" x2="168.885" y2="881.5" gradientUnits="userSpaceOnUse">
<stop stop-opacity="0.69"/>
<stop offset="1" stop-opacity="0"/>
</linearGradient>
<linearGradient id="paint3_linear" x1="249.776" y1="768.723" x2="249.776" y2="487" gradientUnits="userSpaceOnUse">
<stop stop-opacity="0"/>
<stop offset="1" stop-opacity="0.7"/>
</linearGradient>
<linearGradient id="paint4_linear" x1="131.467" y1="390" x2="131.467" y2="790" gradientUnits="userSpaceOnUse">
<stop stop-opacity="0"/>
<stop offset="1" stop-opacity="0.3"/>
</linearGradient>
<linearGradient id="paint5_linear" x1="707" y1="-10" x2="707" y2="390" gradientUnits="userSpaceOnUse">
<stop stop-opacity="0.3"/>
<stop offset="1" stop-opacity="0"/>
</linearGradient>
<linearGradient id="paint6_linear" x1="138.088" y1="688" x2="138.088" y2="1064.31" gradientUnits="userSpaceOnUse">
<stop stop-color="#BCC6F6"/>
<stop offset="1" stop-color="#F2F6FF"/>
</linearGradient>
<clipPath id="clip0">
<rect width="375" height="812" fill="white"/>
</clipPath>
</defs>
</svg>
