<svg width="21" height="21" viewBox="0 0 21 21" fill="none" xmlns="http://www.w3.org/2000/svg">
<path d="M10.752 0.465576C16.1865 0.465576 20.592 4.96203 20.592 10.5087C20.592 16.0553 16.1865 20.5518 10.752 20.5518C5.31756 20.5518 0.91204 16.0553 0.91204 10.5087C0.91204 4.96203 5.31752 0.465576 10.752 0.465576ZM7.39875 17.4439C7.65272 17.7435 8.0966 17.7762 8.39015 17.5169C8.39715 17.5108 8.40403 17.5044 8.41078 17.498L15.4394 11.0417C15.7278 10.7765 15.751 10.3229 15.4912 10.0286C15.4748 10.01 15.4575 9.99239 15.4394 9.9757L8.41078 3.51941C8.12748 3.24855 7.6827 3.26334 7.41732 3.55249C7.15194 3.84164 7.16643 4.29559 7.44973 4.56646C7.45649 4.57293 7.46336 4.57923 7.47036 4.58541L13.9149 10.5087L7.47041 16.4319C7.17681 16.6912 7.14477 17.1442 7.39875 17.4439Z" fill="white"/>
</svg>
