<svg width="21" height="21" viewBox="0 0 21 21" fill="none" xmlns="http://www.w3.org/2000/svg">
<path d="M10.2321 0.0388184C4.79761 0.0388184 0.39209 4.53527 0.39209 10.0819C0.39209 15.6286 4.79761 20.125 10.2321 20.125C15.6666 20.125 20.0721 15.6286 20.0721 10.0819C20.0721 4.53527 15.6666 0.0388184 10.2321 0.0388184ZM13.5854 17.0171C13.3314 17.3167 12.8875 17.3495 12.594 17.0902C12.587 17.084 12.5801 17.0777 12.5733 17.0712L5.54475 10.6149C5.25635 10.3498 5.23316 9.89618 5.49295 9.60182C5.5093 9.58328 5.52659 9.56563 5.54475 9.54894L12.5733 3.09265C12.8566 2.82179 13.3014 2.83659 13.5668 3.12573C13.8322 3.41488 13.8177 3.86884 13.5344 4.1397C13.5276 4.14617 13.5208 4.15248 13.5138 4.15865L7.06923 10.0819L13.5137 16.0052C13.8073 16.2644 13.8394 16.7175 13.5854 17.0171Z" fill="white"/>
</svg>
